# xmcd
#
# Track frame offsets:
#	150
#	10252
#	25700
#	39565
#	58620
#	71607
#	83855
#	93215
#	110682
#	129137
#	144787
#	162655
#	175397
#	188072
#	202387
#
# Disc length: 2872 seconds
#
# Revision: 0
# Processed by: cddbd v1.5PL3 Copyright (c) Steve Scherf et al.
# Submitted via: audiograbber 1.82.02
#
DISCID=ca0b360f
DTITLE=Momentalni Hudebni Sdruzeni - Vyznani
DYEAR=1997
DGENRE=Bluegrass
TTITLE0=Stesti
TTITLE1=Cirkus
TTITLE2=Tak necekej vic
TTITLE3=Inzerat
TTITLE4=Patram dal
TTITLE5=Never pohadkam
TTITLE6=Pramen vlasu
TTITLE7=Laska s velkym L
TTITLE8=Jesse James
TTITLE9=Dlouha miliardy let
TTITLE10=Tak ti mavam
TTITLE11=Pisen ticha ranem zni
TTITLE12=Pas pobrezi
TTITLE13=Melou dal vetrne mlyny
TTITLE14=Az ti vyznani napisu kridou
EXTD=
EXTT0=
EXTT1=
EXTT2=
EXTT3=
EXTT4=
EXTT5=
EXTT6=
EXTT7=
EXTT8=
EXTT9=
EXTT10=
EXTT11=
EXTT12=
EXTT13=
EXTT14=
PLAYORDER=
